<svg version="1.1" xmlns="http://www.w3.org/2000/svg" width="32" height="32" viewBox="0 0 32 32">
   <path stroke="null" d="m26.29313,20.87237c-1.54961,0 -2.94341,0.65626 -3.93302,1.70496l-11.56306,-5.70025c0.03977,-0.26644 0.06715,-0.53813 0.06715,-0.8177c0,-0.27169 -0.02608,-0.53682 -0.06389,-0.79735l11.54611,-5.63659c0.99026,1.05592 2.38993,1.71874 3.94671,1.71874c3.00078,0 5.43243,-2.44849 5.43243,-5.46859c0,-3.02075 -2.43165,-5.46859 -5.43243,-5.46859s-5.43243,2.44784 -5.43243,5.46859c0,0.27169 0.02608,0.53616 0.06389,0.79735l-11.5448,5.63659c-0.99026,-1.05592 -2.38993,-1.71874 -3.94671,-1.71874c-3.00143,0 -5.43308,2.44849 -5.43308,5.46859c0,3.02075 2.43165,5.46859 5.43243,5.46859c1.54961,0 2.94341,-0.65626 3.93302,-1.70364l11.56241,5.69959c-0.04042,0.26644 -0.0678,0.53813 -0.0678,0.81704c0,3.02141 2.43165,5.46859 5.43243,5.46859s5.43243,-2.44718 5.43243,-5.46859c0.00065,-3.02075 -2.431,-5.46859 -5.43178,-5.46859l-0.00001,0z"/>
</svg>