<svg version="1.1" xmlns="http://www.w3.org/2000/svg" width="32" height="32" viewBox="0 0 32 32">
	<path d="M27.49 10.126c0.011 0.254 0.017 0.507 0.017 0.766 0 7.808-5.942 16.809-16.813 16.809-3.337 0-6.442-0.977-9.056-2.653 0.463 0.058 0.932 0.083 1.408 0.083 2.769 0 5.317-0.944 7.341-2.534-2.588-0.042-4.769-1.751-5.52-4.097 0.36 0.067 0.729 0.104 1.111 0.104 0.54 0 1.185-0.071 1.68-0.208-2.704-0.541-4.616-2.929-4.616-5.795v-0.075c0 0.441 1.584 0.711 2.552 0.74-1.584-1.060-2.69-2.87-2.69-4.917 0-1.085 0.261-2.101 0.768-2.974 2.916 3.578 7.255 5.928 12.167 6.173-0.104-0.432-0.16-0.877-0.16-1.343 0-3.266 2.639-5.907 5.901-5.907 1.701 0 3.237 0.715 4.312 1.863 1.35-0.266 2.611-0.757 3.754-1.431-0.438 1.377-1.375 2.533-2.598 3.266 1.196-0.146 2.333-0.462 3.392-0.928-0.789 1.185-1.793 2.221-2.948 3.057z" fill="#black"></path>
</svg>
